<?xml version="1.0" standalone="no"?><!DOCTYPE svg PUBLIC "-//W3C//DTD SVG 1.1//EN" "http://www.w3.org/Graphics/SVG/1.1/DTD/svg11.dtd"><svg t="1589203256767" class="icon" viewBox="0 0 1024 1024" version="1.1" xmlns="http://www.w3.org/2000/svg" p-id="5063" xmlns:xlink="http://www.w3.org/1999/xlink" width="16" height="16"><defs><style type="text/css"></style></defs><path d="M441.26208 327.9872h-67.7888v-67.76832c0-13.55776-13.55776-27.11552-27.09504-27.11552s-22.528 13.55776-22.528 27.11552v67.76832H256c-13.55776 0-27.11552 13.55776-27.11552 27.09504s13.55776 22.528 27.11552 22.528h67.7888v67.76832c0 13.55776 13.55776 27.09504 27.09504 27.09504s22.528-13.55776 22.528-27.09504v-67.6864h67.76832c13.55776 0 27.09504-13.55776 27.09504-27.09504s-13.55776-22.528-27.09504-22.528z m9.03168 243.95776c-9.03168-9.03168-27.11552-9.03168-36.1472 0l-67.76832 67.76832L278.528 571.96544c-9.03168-9.03168-27.09504-9.03168-36.1472 0s-9.03168 27.11552 0 36.1472L310.23104 675.84l-72.2944 72.2944c-9.03168 9.03168-9.03168 27.09504 0 36.1472 4.52608 4.52608 13.55776 9.03168 18.06336 9.03168s13.55776-4.5056 18.08384-9.03168l67.76832-67.76832 72.2944 67.87072c4.5056 4.52608 13.55776 9.03168 18.06336 9.03168s13.55776-4.5056 18.06336-9.03168c9.03168-9.03168 9.03168-27.09504 0-36.1472l-67.76832-67.76832 67.76832-67.76832c9.03168-13.55776 9.03168-31.62112 0-40.6528z m311.72608-243.95776h-185.2416c-13.55776 0-27.09504 13.55776-27.09504 27.09504s13.55776 27.11552 27.09504 27.11552h185.2416c13.55776 0 27.09504-13.55776 27.09504-27.11552 0-18.06336-13.55776-27.09504-27.09504-27.09504z m0 402.08384h-185.2416c-13.55776 0-27.09504 13.55776-27.09504 27.11552S563.2 784.384 576.77824 784.384h185.2416c13.55776 0 27.09504-13.55776 27.09504-27.09504s-13.55776-27.11552-27.09504-27.11552z m0-153.6h-185.2416c-13.55776 0-27.09504 13.55776-27.09504 27.11552S563.2 630.784 576.77824 630.784h185.2416c13.55776 0 27.09504-13.55776 27.09504-27.11552s-13.55776-27.11552-27.09504-27.11552z m0 0" fill="#ffffff" p-id="5064"></path><path d="M829.78816 61.44H188.25216a131.072 131.072 0 0 0-131.072 131.072v646.00064c0 67.76832 58.73664 126.50496 131.072 126.50496h646.06208a131.072 131.072 0 0 0 131.072-131.072V192.512c-4.52608-72.2944-63.24224-131.072-135.53664-131.072z m81.32608 772.54656c0 40.67328-36.1472 76.8-76.8 76.8H188.25216c-40.6528 0-76.8-36.1472-76.8-76.8V192.512c0-40.6528 36.1472-76.8 76.8-76.8h646.06208c40.6528 0 76.8 36.1472 76.8 76.8z m0 0" fill="#ffffff" p-id="5065"></path></svg>